# xmcd
#
# Track frame offsets:
#	150
#	16626
#	33731
#	45970
#	60282
#	73168
#	94220
#	107905
#	117263
#	130701
#	140699
#	151373
#	164004
#	176292
#	187638
#	201345
#	214132
#	224237
#	235635
#	248893
#
# Disc length: 3498 seconds
#
# Revision: 5
# Processed by: cddbd v1.5.2PL0 Copyright (c) Steve Scherf et al.
# Submitted via: audiograbber 1.83.01
#
DISCID=1c0da814
DTITLE=Various Artist - 100 Hits - Country Greats [Disc 1]
DYEAR=2015
DGENRE=Country
TTITLE0=Johnny Cash - A Boy Named Sue
TTITLE1=Kris Kristofferson - Lovin' Her Was Easier (Than Anything I'll Ever Do 
TTITLE1=Again)
TTITLE2=Charlie Rich - The Most Beautiful Girl
TTITLE3=John Denver - Take Me Home, Country Roads
TTITLE4=Jim Reeves - Distant Drums
TTITLE5=Marty Robbins - El Paso
TTITLE6=Jimmy Dean - Big Bad John
TTITLE7=Flatt and Scruggs - The Ballad Of Jed Clampett
TTITLE8=Tammy Wynette - D.I.V.O.R.C.E.
TTITLE9=Lynn Anderson - Promises, Promises
TTITLE10=Barbara Mandrell - Show Me
TTITLE11=Porter Wagoner - A Satisfied Mind
TTITLE12=Ray Price - I've Got A New Heartache
TTITLE13=Don Gibson - Oh! Lonesome Me
TTITLE14=Charley Pride - All I Have To Offer You (Is Me)
TTITLE15=Bobby Bare - Detroit City
TTITLE16=George Hamiltion IV - Abilene
TTITLE17=The Statler Brothers - I Still Miss Someone
TTITLE18=Johnny Paycheck - She's All I Got
TTITLE19=Waylon Jennings - Good Hearted Woman
EXTD=
EXTT0=
EXTT1=
EXTT2=
EXTT3=
EXTT4=
EXTT5=
EXTT6=
EXTT7=
EXTT8=
EXTT9=
EXTT10=
EXTT11=
EXTT12=
EXTT13=
EXTT14=
EXTT15=
EXTT16=
EXTT17=
EXTT18=
EXTT19=
PLAYORDER=
